<svg width="254" height="254" viewBox="0 0 254 254" fill="none" xmlns="http://www.w3.org/2000/svg">
<path d="M0.5 0.5H253.5V253.5H0.5V0.5Z" stroke="black"/>
<path d="M108.492 118.43C105.74 118.43 103.017 117.685 100.322 116.194C97.6273 114.646 95.4773 111.665 93.872 107.25L91.722 101.66H67.642L60.762 118H56.892L80.972 61.24H83.552L102.472 107.25C103.905 110.575 105.253 112.869 106.514 114.13C107.775 115.334 109.581 116.051 111.932 116.28V118C110.9 118.287 109.753 118.43 108.492 118.43ZM68.932 98.22H90.002L79.682 73.28L68.932 98.22Z" fill="black"/>
<path d="M155.024 199.72C149.405 199.72 144.36 198.344 139.888 195.592C135.473 192.84 132.005 189.113 129.482 184.412C127.017 179.653 125.784 174.436 125.784 168.76C125.784 163.313 126.873 158.383 129.052 153.968C131.231 149.496 134.327 145.97 138.34 143.39C142.411 140.81 147.112 139.52 152.444 139.52C157.375 139.52 161.617 140.179 165.172 141.498C168.784 142.759 171.421 144.393 173.084 146.4C174.001 147.547 174.575 149.066 174.804 150.958C175.091 152.85 175.234 155.201 175.234 158.01H173.514C172.425 152.965 170.361 149.209 167.322 146.744C164.283 144.221 160.184 142.96 155.024 142.96C150.38 142.96 146.51 144.193 143.414 146.658C140.318 149.066 138.025 152.219 136.534 156.118C135.101 160.017 134.384 164.231 134.384 168.76C134.384 178.449 136.276 185.473 140.06 189.83C143.844 194.13 148.832 196.28 155.024 196.28C157.948 196.28 160.442 196.022 162.506 195.506C164.57 194.99 166.519 194.245 168.354 193.27V178.306C168.354 176.357 168.669 174.665 169.3 173.232C169.931 171.799 171.278 170.623 173.342 169.706C175.463 168.731 178.531 168.244 182.544 168.244V169.964C179.964 169.964 178.244 170.623 177.384 171.942C176.524 173.261 176.094 175.325 176.094 178.134V194.302C172.998 196.194 169.759 197.57 166.376 198.43C162.993 199.29 159.209 199.72 155.024 199.72Z" fill="black"/>
</svg>
