<svg width="281" height="129" viewBox="0 0 281 129" fill="none" xmlns="http://www.w3.org/2000/svg">
<path d="M29.856 68.24C28.32 68.24 26.8 67.824 25.296 66.992C23.792 66.128 22.592 64.464 21.696 62L20.496 58.88H7.056L3.216 68H1.056L14.496 36.32H15.936L26.496 62C27.296 63.856 28.048 65.136 28.752 65.84C29.456 66.512 30.464 66.912 31.776 67.04V68C31.2 68.16 30.56 68.24 29.856 68.24ZM7.776 56.96H19.536L13.776 43.04L7.776 56.96ZM37.6688 42.8V68H35.7488V42.08C35.7488 40.544 35.4128 39.36 34.7408 38.528C34.1008 37.696 32.9968 37.28 31.4288 37.28H30.9488V36.32H34.0688C35.5408 36.32 36.7888 36.56 37.8128 37.04C38.8368 37.52 39.7488 38.24 40.5488 39.2L57.3488 60.08V36.32H59.2688V68.48H58.3088L37.6688 42.8ZM70.5281 42.8V68H68.6081V42.08C68.6081 40.544 68.2721 39.36 67.6001 38.528C66.9601 37.696 65.8561 37.28 64.2881 37.28H63.8081V36.32H66.9281C68.4001 36.32 69.6481 36.56 70.6721 37.04C71.6961 37.52 72.6081 38.24 73.4081 39.2L90.2081 60.08V36.32H92.1281V68.48H91.1681L70.5281 42.8ZM125.762 68.24C124.226 68.24 122.706 67.824 121.202 66.992C119.698 66.128 118.498 64.464 117.602 62L116.402 58.88H102.962L99.1223 68H96.9623L110.402 36.32H111.842L122.402 62C123.202 63.856 123.954 65.136 124.658 65.84C125.362 66.512 126.37 66.912 127.682 67.04V68C127.106 68.16 126.466 68.24 125.762 68.24ZM103.682 56.96H115.442L109.682 43.04L103.682 56.96Z" fill="black"/>
<path d="M115.432 104.96C112.296 104.96 109.48 104.192 106.984 102.656C104.52 101.12 102.584 99.04 101.176 96.416C99.8 93.76 99.112 90.848 99.112 87.68C99.112 84.64 99.72 81.888 100.936 79.424C102.152 76.928 103.88 74.96 106.12 73.52C108.392 72.08 111.016 71.36 113.992 71.36C116.744 71.36 119.112 71.728 121.096 72.464C123.112 73.168 124.584 74.08 125.512 75.2C126.024 75.84 126.344 76.688 126.472 77.744C126.632 78.8 126.712 80.112 126.712 81.68H125.752C125.144 78.864 123.992 76.768 122.296 75.392C120.6 73.984 118.312 73.28 115.432 73.28C112.84 73.28 110.68 73.968 108.952 75.344C107.224 76.688 105.944 78.448 105.112 80.624C104.312 82.8 103.912 85.152 103.912 87.68C103.912 93.088 104.968 97.008 107.08 99.44C109.192 101.84 111.976 103.04 115.432 103.04C117.064 103.04 118.456 102.896 119.608 102.608C120.76 102.32 121.848 101.904 122.872 101.36V93.008C122.872 91.92 123.048 90.976 123.4 90.176C123.752 89.376 124.504 88.72 125.656 88.208C126.84 87.664 128.552 87.392 130.792 87.392V88.352C129.352 88.352 128.392 88.72 127.912 89.456C127.432 90.192 127.192 91.344 127.192 92.912V101.936C125.464 102.992 123.656 103.76 121.768 104.24C119.88 104.72 117.768 104.96 115.432 104.96ZM148.635 104.96C145.659 104.96 143.035 104.224 140.763 102.752C138.523 101.28 136.795 99.264 135.579 96.704C134.363 94.144 133.755 91.296 133.755 88.16C133.755 85.024 134.363 82.176 135.579 79.616C136.795 77.056 138.523 75.04 140.763 73.568C143.035 72.096 145.659 71.36 148.635 71.36C151.611 71.36 154.219 72.096 156.459 73.568C158.731 75.04 160.475 77.056 161.691 79.616C162.907 82.176 163.515 85.024 163.515 88.16C163.515 91.296 162.907 94.144 161.691 96.704C160.475 99.264 158.731 101.28 156.459 102.752C154.219 104.224 151.611 104.96 148.635 104.96ZM148.635 103.04C150.715 103.04 152.507 102.432 154.011 101.216C155.547 100 156.715 98.288 157.515 96.08C158.315 93.84 158.715 91.2 158.715 88.16C158.715 85.12 158.315 82.496 157.515 80.288C156.715 78.048 155.547 76.32 154.011 75.104C152.507 73.888 150.715 73.28 148.635 73.28C146.555 73.28 144.747 73.888 143.211 75.104C141.707 76.32 140.555 78.048 139.755 80.288C138.955 82.496 138.555 85.12 138.555 88.16C138.555 91.2 138.955 93.84 139.755 96.08C140.555 98.288 141.707 100 143.211 101.216C144.747 102.432 146.555 103.04 148.635 103.04ZM170.479 78.08C170.479 76.448 170.255 75.248 169.807 74.48C169.359 73.68 168.463 73.28 167.119 73.28H166.159V72.32H170.479C171.663 72.32 172.543 72.48 173.119 72.8C173.727 73.088 174.159 73.632 174.415 74.432C174.671 75.232 174.799 76.448 174.799 78.08V102.08H191.839V104H170.479V78.08Z" fill="black"/>
</svg>
