<svg width="163" height="87" viewBox="0 0 163 87" fill="none" xmlns="http://www.w3.org/2000/svg">
<path d="M29.856 40.24C28.32 40.24 26.8 39.824 25.296 38.992C23.792 38.128 22.592 36.464 21.696 34L20.496 30.88H7.056L3.216 40H1.056L14.496 8.32H15.936L26.496 34C27.296 35.856 28.048 37.136 28.752 37.84C29.456 38.512 30.464 38.912 31.776 39.04V40C31.2 40.16 30.56 40.24 29.856 40.24ZM7.776 28.96H19.536L13.776 15.04L7.776 28.96ZM37.6688 14.8V40H35.7488V14.08C35.7488 12.544 35.4128 11.36 34.7408 10.528C34.1008 9.696 32.9968 9.28 31.4288 9.28H30.9488V8.32H34.0688C35.5408 8.32 36.7888 8.56 37.8128 9.04C38.8368 9.52 39.7488 10.24 40.5488 11.2L57.3488 32.08V8.32H59.2688V40.48H58.3088L37.6688 14.8ZM70.5281 14.8V40H68.6081V14.08C68.6081 12.544 68.2721 11.36 67.6001 10.528C66.9601 9.696 65.8561 9.28 64.2881 9.28H63.8081V8.32H66.9281C68.4001 8.32 69.6481 8.56 70.6721 9.04C71.6961 9.52 72.6081 10.24 73.4081 11.2L90.2081 32.08V8.32H92.1281V40.48H91.1681L70.5281 14.8ZM125.762 40.24C124.226 40.24 122.706 39.824 121.202 38.992C119.698 38.128 118.498 36.464 117.602 34L116.402 30.88H102.962L99.1223 40H96.9623L110.402 8.32H111.842L122.402 34C123.202 35.856 123.954 37.136 124.658 37.84C125.362 38.512 126.37 38.912 127.682 39.04V40C127.106 40.16 126.466 40.24 125.762 40.24ZM103.682 28.96H115.442L109.682 15.04L103.682 28.96Z" fill="black"/>
<path d="M82.432 75.96C79.296 75.96 76.48 75.192 73.984 73.656C71.52 72.12 69.584 70.04 68.176 67.416C66.8 64.76 66.112 61.848 66.112 58.68C66.112 55.64 66.72 52.888 67.936 50.424C69.152 47.928 70.88 45.96 73.12 44.52C75.392 43.08 78.016 42.36 80.992 42.36C83.744 42.36 86.112 42.728 88.096 43.464C90.112 44.168 91.584 45.08 92.512 46.2C93.024 46.84 93.344 47.688 93.472 48.744C93.632 49.8 93.712 51.112 93.712 52.68H92.752C92.144 49.864 90.992 47.768 89.296 46.392C87.6 44.984 85.312 44.28 82.432 44.28C79.84 44.28 77.68 44.968 75.952 46.344C74.224 47.688 72.944 49.448 72.112 51.624C71.312 53.8 70.912 56.152 70.912 58.68C70.912 64.088 71.968 68.008 74.08 70.44C76.192 72.84 78.976 74.04 82.432 74.04C84.064 74.04 85.456 73.896 86.608 73.608C87.76 73.32 88.848 72.904 89.872 72.36V64.008C89.872 62.92 90.048 61.976 90.4 61.176C90.752 60.376 91.504 59.72 92.656 59.208C93.84 58.664 95.552 58.392 97.792 58.392V59.352C96.352 59.352 95.392 59.72 94.912 60.456C94.432 61.192 94.192 62.344 94.192 63.912V72.936C92.464 73.992 90.656 74.76 88.768 75.24C86.88 75.72 84.768 75.96 82.432 75.96ZM115.635 75.96C112.659 75.96 110.035 75.224 107.763 73.752C105.523 72.28 103.795 70.264 102.579 67.704C101.363 65.144 100.755 62.296 100.755 59.16C100.755 56.024 101.363 53.176 102.579 50.616C103.795 48.056 105.523 46.04 107.763 44.568C110.035 43.096 112.659 42.36 115.635 42.36C118.611 42.36 121.219 43.096 123.459 44.568C125.731 46.04 127.475 48.056 128.691 50.616C129.907 53.176 130.515 56.024 130.515 59.16C130.515 62.296 129.907 65.144 128.691 67.704C127.475 70.264 125.731 72.28 123.459 73.752C121.219 75.224 118.611 75.96 115.635 75.96ZM115.635 74.04C117.715 74.04 119.507 73.432 121.011 72.216C122.547 71 123.715 69.288 124.515 67.08C125.315 64.84 125.715 62.2 125.715 59.16C125.715 56.12 125.315 53.496 124.515 51.288C123.715 49.048 122.547 47.32 121.011 46.104C119.507 44.888 117.715 44.28 115.635 44.28C113.555 44.28 111.747 44.888 110.211 46.104C108.707 47.32 107.555 49.048 106.755 51.288C105.955 53.496 105.555 56.12 105.555 59.16C105.555 62.2 105.955 64.84 106.755 67.08C107.555 69.288 108.707 71 110.211 72.216C111.747 73.432 113.555 74.04 115.635 74.04ZM137.479 49.08C137.479 47.448 137.255 46.248 136.807 45.48C136.359 44.68 135.463 44.28 134.119 44.28H133.159V43.32H137.479C138.663 43.32 139.543 43.48 140.119 43.8C140.727 44.088 141.159 44.632 141.415 45.432C141.671 46.232 141.799 47.448 141.799 49.08V73.08H158.839V75H137.479V49.08Z" fill="black"/>
</svg>
